<svg fill="#000000" xmlns="http://www.w3.org/2000/svg" xmlns:xlink="http://www.w3.org/1999/xlink" version="1.1" x="0px" y="0px" viewBox="0 0 100 100" enable-background="new 0 0 100 100" xml:space="preserve"><path d="M85.6,74.7c-2.4,0.5-4.9,0.3-7.1-0.6L11.2,46.7l-0.9-29.3c0-0.4,0.4-0.7,0.8-0.6l5.8,2.3c0.4,0.1,0.7,0.4,0.8,0.8l4.6,14.4  l16.2,5.9l1.3-33.4c0-0.4,0.4-0.7,0.8-0.5l9.1,3.5c0.4,0.1,0.7,0.5,0.8,0.8L62,48.7l22.9,8.4c2.4,0.9,4.4,2.5,5.8,4.6l0.1,0.1  C94,66.8,91.3,73.4,85.6,74.7z M7.9,93.8h79.3V87H7.9V93.8z"/></svg>