<svg fill="#000000" xmlns="http://www.w3.org/2000/svg" xmlns:xlink="http://www.w3.org/1999/xlink" version="1.1" x="0px" y="0px" viewBox="0 0 100 100" enable-background="new 0 0 100 100" xml:space="preserve"><path d="M21.6,65.3L2,43.6c-0.3-0.3-0.1-0.8,0.3-1l5.9-2c0.4-0.1,0.8-0.1,1.1,0.1l12.9,8l16.2-6L17.7,16.4c-0.3-0.3-0.1-0.8,0.3-0.9  l9.3-3.2c0.4-0.1,0.8-0.1,1.1,0.1l33.3,21.7l22.9-8.3c2.4-0.9,5-0.9,7.4-0.2l0.1,0c5.6,1.7,7.9,8.4,4.3,13.1  c-1.5,1.9-3.5,3.4-5.8,4.2L21.6,65.3z M7.8,87.8h79.3V81H7.8V87.8z"/></svg>